<mxfile host="Electron" agent="Mozilla/5.0 (Windows NT 10.0; Win64; x64) AppleWebKit/537.36 (KHTML, like Gecko) draw.io/28.1.2 Chrome/138.0.7204.243 Electron/37.4.0 Safari/537.36" version="28.1.2">
  <diagram name="Seite-1" id="B9JCH90A8bTm-Hhi2omo">
    <mxGraphModel dx="1426" dy="841" grid="1" gridSize="10" guides="1" tooltips="1" connect="1" arrows="1" fold="1" page="1" pageScale="1" pageWidth="827" pageHeight="1169" math="0" shadow="0">
      <root>
        <mxCell id="0" />
        <mxCell id="1" parent="0" />
        <mxCell id="F31y-TWFCDy7B1COo835-5" value="" style="edgeStyle=orthogonalEdgeStyle;rounded=0;orthogonalLoop=1;jettySize=auto;html=1;" edge="1" parent="1" source="F31y-TWFCDy7B1COo835-1" target="F31y-TWFCDy7B1COo835-4">
          <mxGeometry relative="1" as="geometry" />
        </mxCell>
        <mxCell id="F31y-TWFCDy7B1COo835-1" value="START" style="ellipse;whiteSpace=wrap;html=1;" vertex="1" parent="1">
          <mxGeometry x="377" y="30" width="120" height="80" as="geometry" />
        </mxCell>
        <mxCell id="F31y-TWFCDy7B1COo835-2" value="Process: means when your app shall do something itself" style="shape=document;whiteSpace=wrap;html=1;boundedLbl=1;" vertex="1" parent="1">
          <mxGeometry x="80" y="210" width="150" height="140" as="geometry" />
        </mxCell>
        <mxCell id="F31y-TWFCDy7B1COo835-8" value="" style="edgeStyle=orthogonalEdgeStyle;rounded=0;orthogonalLoop=1;jettySize=auto;html=1;" edge="1" parent="1" source="F31y-TWFCDy7B1COo835-4" target="F31y-TWFCDy7B1COo835-7">
          <mxGeometry relative="1" as="geometry" />
        </mxCell>
        <mxCell id="F31y-TWFCDy7B1COo835-4" value="define variables:&lt;div&gt;name: &quot;Ali&quot;&lt;/div&gt;&lt;div&gt;country: &quot;Iran&quot;&lt;/div&gt;&lt;div&gt;age: &quot;48&quot;&lt;/div&gt;&lt;div&gt;result: NULL&lt;/div&gt;" style="shape=process;whiteSpace=wrap;html=1;backgroundOutline=1;" vertex="1" parent="1">
          <mxGeometry x="340" y="150" width="194" height="120" as="geometry" />
        </mxCell>
        <mxCell id="F31y-TWFCDy7B1COo835-6" value="" style="shape=flexArrow;endArrow=classic;html=1;rounded=0;" edge="1" parent="1">
          <mxGeometry width="50" height="50" relative="1" as="geometry">
            <mxPoint x="250" y="285" as="sourcePoint" />
            <mxPoint x="320" y="285" as="targetPoint" />
          </mxGeometry>
        </mxCell>
        <mxCell id="F31y-TWFCDy7B1COo835-10" value="" style="edgeStyle=orthogonalEdgeStyle;rounded=0;orthogonalLoop=1;jettySize=auto;html=1;" edge="1" parent="1" source="F31y-TWFCDy7B1COo835-7" target="F31y-TWFCDy7B1COo835-9">
          <mxGeometry relative="1" as="geometry" />
        </mxCell>
        <mxCell id="F31y-TWFCDy7B1COo835-7" value="Text Generator Process" style="shape=process;whiteSpace=wrap;html=1;backgroundOutline=1;" vertex="1" parent="1">
          <mxGeometry x="335.5" y="330" width="203" height="140" as="geometry" />
        </mxCell>
        <mxCell id="F31y-TWFCDy7B1COo835-12" value="" style="edgeStyle=orthogonalEdgeStyle;rounded=0;orthogonalLoop=1;jettySize=auto;html=1;" edge="1" parent="1" source="F31y-TWFCDy7B1COo835-9" target="F31y-TWFCDy7B1COo835-11">
          <mxGeometry relative="1" as="geometry" />
        </mxCell>
        <mxCell id="F31y-TWFCDy7B1COo835-9" value="print: result" style="shape=process;whiteSpace=wrap;html=1;backgroundOutline=1;" vertex="1" parent="1">
          <mxGeometry x="337" y="540" width="200" height="110" as="geometry" />
        </mxCell>
        <mxCell id="F31y-TWFCDy7B1COo835-11" value="END" style="ellipse;whiteSpace=wrap;html=1;" vertex="1" parent="1">
          <mxGeometry x="377" y="690" width="120" height="80" as="geometry" />
        </mxCell>
        <mxCell id="F31y-TWFCDy7B1COo835-13" value="&lt;h1 style=&quot;margin-top: 0px;&quot;&gt;Pseudo Code&lt;/h1&gt;&lt;div&gt;&lt;br&gt;&lt;/div&gt;&lt;div&gt;START&lt;/div&gt;&lt;div&gt;&lt;span style=&quot;white-space: pre;&quot;&gt;&#x9;&lt;/span&gt;SET name : Ali&lt;/div&gt;&lt;div&gt;&lt;span style=&quot;white-space: pre;&quot;&gt;&#x9;&lt;/span&gt;SET country : Iran&lt;/div&gt;&lt;div&gt;&lt;span style=&quot;white-space: pre;&quot;&gt;&#x9;&lt;/span&gt;SET age : 48&lt;/div&gt;&lt;div&gt;&lt;span style=&quot;white-space: pre;&quot;&gt;&#x9;&lt;/span&gt;SET result : NULL&lt;br&gt;&lt;/div&gt;&lt;div&gt;&lt;span style=&quot;white-space: pre;&quot;&gt;&#x9;&lt;/span&gt;&lt;br&gt;&lt;/div&gt;&lt;div&gt;&lt;span style=&quot;white-space: pre;&quot;&gt;&#x9;&lt;/span&gt;result =&amp;nbsp;&lt;span style=&quot;text-align: center; background-color: transparent; color: light-dark(rgb(0, 0, 0), rgb(255, 255, 255));&quot;&gt;Hello my name is &quot;name&quot; and i am &quot;age&quot; years old and i come from &lt;span style=&quot;white-space: pre;&quot;&gt;&#x9;&lt;/span&gt;&lt;span style=&quot;white-space: pre;&quot;&gt;&#x9;&lt;/span&gt;&lt;span style=&quot;white-space: pre;&quot;&gt;&#x9;&lt;/span&gt;&quot;country&quot;&lt;/span&gt;&lt;br&gt;&lt;/div&gt;&lt;div&gt;&lt;span style=&quot;text-align: center; background-color: transparent; color: light-dark(rgb(0, 0, 0), rgb(255, 255, 255));&quot;&gt;&lt;span style=&quot;white-space: pre;&quot;&gt;&#x9;&lt;/span&gt;PRINT oder OUTPUT result&lt;br&gt;&lt;/span&gt;&lt;/div&gt;&lt;div&gt;&lt;span style=&quot;text-align: center; background-color: transparent; color: light-dark(rgb(0, 0, 0), rgb(255, 255, 255));&quot;&gt;END&lt;/span&gt;&lt;/div&gt;" style="text;html=1;whiteSpace=wrap;overflow=hidden;rounded=0;" vertex="1" parent="1">
          <mxGeometry x="710" y="140" width="530" height="350" as="geometry" />
        </mxCell>
        <mxCell id="F31y-TWFCDy7B1COo835-14" value="" style="whiteSpace=wrap;html=1;aspect=fixed;" vertex="1" parent="1">
          <mxGeometry x="110" y="820" width="970" height="970" as="geometry" />
        </mxCell>
        <mxCell id="F31y-TWFCDy7B1COo835-15" value="" style="rounded=0;whiteSpace=wrap;html=1;" vertex="1" parent="1">
          <mxGeometry x="670" y="760" width="120" height="60" as="geometry" />
        </mxCell>
        <mxCell id="F31y-TWFCDy7B1COo835-16" value="Text Generator Process" style="rounded=0;whiteSpace=wrap;html=1;" vertex="1" parent="1">
          <mxGeometry x="150" y="840" width="230" height="40" as="geometry" />
        </mxCell>
        <mxCell id="F31y-TWFCDy7B1COo835-19" value="" style="edgeStyle=orthogonalEdgeStyle;rounded=0;orthogonalLoop=1;jettySize=auto;html=1;" edge="1" parent="1" source="F31y-TWFCDy7B1COo835-17" target="F31y-TWFCDy7B1COo835-18">
          <mxGeometry relative="1" as="geometry" />
        </mxCell>
        <mxCell id="F31y-TWFCDy7B1COo835-17" value="start" style="ellipse;whiteSpace=wrap;html=1;" vertex="1" parent="1">
          <mxGeometry x="205" y="940" width="120" height="80" as="geometry" />
        </mxCell>
        <mxCell id="F31y-TWFCDy7B1COo835-21" value="" style="edgeStyle=orthogonalEdgeStyle;rounded=0;orthogonalLoop=1;jettySize=auto;html=1;" edge="1" parent="1" source="F31y-TWFCDy7B1COo835-18" target="F31y-TWFCDy7B1COo835-20">
          <mxGeometry relative="1" as="geometry" />
        </mxCell>
        <mxCell id="F31y-TWFCDy7B1COo835-18" value="input: name, country, age" style="whiteSpace=wrap;html=1;" vertex="1" parent="1">
          <mxGeometry x="182.5" y="1070" width="165" height="100" as="geometry" />
        </mxCell>
        <mxCell id="F31y-TWFCDy7B1COo835-23" value="" style="edgeStyle=orthogonalEdgeStyle;rounded=0;orthogonalLoop=1;jettySize=auto;html=1;" edge="1" parent="1" source="F31y-TWFCDy7B1COo835-20" target="F31y-TWFCDy7B1COo835-22">
          <mxGeometry relative="1" as="geometry" />
        </mxCell>
        <mxCell id="F31y-TWFCDy7B1COo835-24" value="No" style="edgeLabel;html=1;align=center;verticalAlign=middle;resizable=0;points=[];" vertex="1" connectable="0" parent="F31y-TWFCDy7B1COo835-23">
          <mxGeometry x="-0.3053" relative="1" as="geometry">
            <mxPoint as="offset" />
          </mxGeometry>
        </mxCell>
        <mxCell id="F31y-TWFCDy7B1COo835-26" value="" style="edgeStyle=orthogonalEdgeStyle;rounded=0;orthogonalLoop=1;jettySize=auto;html=1;" edge="1" parent="1" source="F31y-TWFCDy7B1COo835-20" target="F31y-TWFCDy7B1COo835-25">
          <mxGeometry relative="1" as="geometry" />
        </mxCell>
        <mxCell id="F31y-TWFCDy7B1COo835-31" value="Yes" style="edgeLabel;html=1;align=center;verticalAlign=middle;resizable=0;points=[];" vertex="1" connectable="0" parent="F31y-TWFCDy7B1COo835-26">
          <mxGeometry x="-0.16" y="2" relative="1" as="geometry">
            <mxPoint as="offset" />
          </mxGeometry>
        </mxCell>
        <mxCell id="F31y-TWFCDy7B1COo835-20" value="all input exist" style="rhombus;whiteSpace=wrap;html=1;" vertex="1" parent="1">
          <mxGeometry x="190" y="1220" width="150" height="100" as="geometry" />
        </mxCell>
        <mxCell id="F31y-TWFCDy7B1COo835-32" style="edgeStyle=orthogonalEdgeStyle;rounded=0;orthogonalLoop=1;jettySize=auto;html=1;entryX=1;entryY=0.5;entryDx=0;entryDy=0;" edge="1" parent="1" source="F31y-TWFCDy7B1COo835-22" target="F31y-TWFCDy7B1COo835-27">
          <mxGeometry relative="1" as="geometry">
            <Array as="points">
              <mxPoint x="500" y="1643" />
            </Array>
          </mxGeometry>
        </mxCell>
        <mxCell id="F31y-TWFCDy7B1COo835-22" value="Print: Error" style="rounded=1;whiteSpace=wrap;html=1;" vertex="1" parent="1">
          <mxGeometry x="435" y="1240" width="120" height="60" as="geometry" />
        </mxCell>
        <mxCell id="F31y-TWFCDy7B1COo835-28" value="" style="edgeStyle=orthogonalEdgeStyle;rounded=0;orthogonalLoop=1;jettySize=auto;html=1;" edge="1" parent="1" source="F31y-TWFCDy7B1COo835-25" target="F31y-TWFCDy7B1COo835-27">
          <mxGeometry relative="1" as="geometry" />
        </mxCell>
        <mxCell id="F31y-TWFCDy7B1COo835-25" value="result = Hello my name is &quot;name&quot; and i am &quot;age&quot; and i come from &quot;country&quot;" style="whiteSpace=wrap;html=1;" vertex="1" parent="1">
          <mxGeometry x="120" y="1420" width="290" height="150" as="geometry" />
        </mxCell>
        <mxCell id="F31y-TWFCDy7B1COo835-30" value="" style="edgeStyle=orthogonalEdgeStyle;rounded=0;orthogonalLoop=1;jettySize=auto;html=1;" edge="1" parent="1" source="F31y-TWFCDy7B1COo835-27" target="F31y-TWFCDy7B1COo835-29">
          <mxGeometry relative="1" as="geometry" />
        </mxCell>
        <mxCell id="F31y-TWFCDy7B1COo835-27" value="print result" style="whiteSpace=wrap;html=1;" vertex="1" parent="1">
          <mxGeometry x="205" y="1620" width="120" height="45" as="geometry" />
        </mxCell>
        <mxCell id="F31y-TWFCDy7B1COo835-29" value="end" style="ellipse;whiteSpace=wrap;html=1;" vertex="1" parent="1">
          <mxGeometry x="225" y="1700" width="80" height="80" as="geometry" />
        </mxCell>
      </root>
    </mxGraphModel>
  </diagram>
</mxfile>
